<svg version="1.1" xmlns="http://www.w3.org/2000/svg" xmlns:xlink="http://www.w3.org/1999/xlink" fill="#ffffff">
	<path transform="scale(00.05, -00.05) translate(0, -800)" d="M640 240c-14 -7 -24 -2 -20 11c4 12 5 23 5 31c0 30 -21 55 -51 55c-55 0 -101 -48 -101 -106c0 -41 34 -61 72 -61h13c9 0 11 -8 11 -16c0 -26 -16 -60 -63 -60c-55 0 -66 49 -76 49c-9 0 -4 -16 11 -45c3 -6 7 -10 7 -20c0 -37 -52 -88 -65 -88s-65 51 -65 88 c0 10 4 14 7 20c15 29 20 45 11 45c-10 0 -21 -49 -76 -49c-47 0 -63 34 -63 60c0 8 2 16 11 16h13c38 0 72 20 72 61c0 58 -46 106 -101 106c-30 0 -51 -25 -51 -55c0 -8 1 -19 5 -31c4 -13 -6 -18 -20 -11c-41 19 -76 80 -76 134c0 80 51 125 112 125 c64 0 100 -42 111 -55c11 -11 21 -33 32 -33c6 0 9 6 9 15c0 45 -51 124 -23 185c17 36 71 99 92 99s75 -63 92 -99c28 -61 -23 -135 -23 -185c0 -9 3 -15 9 -15c11 0 21 22 32 33c11 13 47 55 111 55c61 0 112 -45 112 -125c0 -62 -41 -118 -76 -134z" />
</svg>